<svg width="127" height="80" viewBox="0 0 127 80" fill="none" xmlns="http://www.w3.org/2000/svg">
<path d="M1.37473 77.428C0.822441 77.428 0.374725 77.8757 0.374725 78.428C0.374725 78.9803 0.822441 79.428 1.37473 79.428V78.428V77.428ZM126.158 8.28987C126.549 7.89935 126.549 7.26618 126.158 6.87566L119.794 0.511696C119.404 0.121172 118.77 0.121172 118.38 0.511696C117.989 0.90222 117.989 1.53539 118.38 1.92591L124.037 7.58276L118.38 13.2396C117.989 13.6301 117.989 14.2633 118.38 14.6538C118.77 15.0444 119.404 15.0444 119.794 14.6538L126.158 8.28987ZM1.37473 78.428V79.428C32.3474 79.428 48.3968 61.3639 64.1595 43.6706C79.9544 25.9413 95.4626 8.58276 125.451 8.58276V7.58276V6.58276C94.4783 6.58276 78.429 24.6469 62.6662 42.3402C46.8713 60.0695 31.3631 77.428 1.37473 77.428V78.428Z" fill="white"/>
</svg>
