<svg width="102" height="97" viewBox="0 0 102 97" fill="none" xmlns="http://www.w3.org/2000/svg">
<path d="M2.18503 92.8372C1.08046 92.8372 0.185028 93.7326 0.185028 94.8372C0.185028 95.9417 1.08046 96.8372 2.18503 96.8372V94.8372V92.8372ZM100.865 16.997C101.646 16.2159 101.646 14.9496 100.865 14.1686L88.1373 1.44063C87.3562 0.659579 86.0899 0.659579 85.3089 1.44063C84.5278 2.22168 84.5278 3.48801 85.3089 4.26906L96.6226 15.5828L85.3089 26.8965C84.5278 27.6775 84.5278 28.9439 85.3089 29.7249C86.0899 30.5059 87.3562 30.5059 88.1373 29.7249L100.865 16.997ZM2.18503 94.8372V96.8372C16.1535 96.8372 26.0722 91.6324 33.8516 83.8694C41.5356 76.2015 47.134 66.0257 52.5691 56.1762C58.0674 46.2121 63.4024 36.5743 70.6099 29.382C77.7221 22.2848 86.6532 17.5828 99.451 17.5828V15.5828V13.5828C85.4825 13.5828 75.5639 18.7875 67.7844 26.5506C60.1004 34.2184 54.502 44.3942 49.0669 54.2437C43.5686 64.2078 38.2337 73.8456 31.0261 81.038C23.914 88.1351 14.9828 92.8372 2.18503 92.8372V94.8372Z" fill="white"/>
</svg>
